<svg width="200" height="200" viewBox="0 0 200 200" xmlns="http://www.w3.org/2000/svg" xmlns:xlink="http://www.w3.org/1999/xlink"><title>200</title><defs><path d="M0 8.006A8.007 8.007 0 0 1 8.005 0h177.446c4.421 0 8.006 3.585 8.006 8v160.513c0 3.119 5.729 28.31 6.543 31.487-1.26 0-8.776-5.905-16.529-10.487-7.752-4.583-7.97-4.583-15.048-4.583H8c-4.418 0-8-3.59-8-8.005V8.005z" id="a"/></defs><g fill="none" fill-rule="evenodd"><use fill="#FFF" xlink:href="#a"/><path stroke-opacity=".8" stroke="#B4B4B4" d="M199.283 199.198c-.658-.36-1.738-1.044-3.269-2.076-.665-.449-3.29-2.238-3.71-2.524a230.66 230.66 0 0 0-4.365-2.9 124.193 124.193 0 0 0-4.213-2.616c-4.847-2.865-6.324-3.634-8.167-4.138-1.64-.448-2.806-.514-7.136-.514H8c-4.14 0-7.5-3.364-7.5-7.505V8.005A7.507 7.507 0 0 1 8.005.5h177.446a7.505 7.505 0 0 1 7.506 7.5v158.315h1v-.064-.06-.003h-1v2.325c0 2.44 4.444 23.07 6.326 30.685z"/></g></svg>
