<svg width="77" height="50" viewBox="0 0 77 50" xmlns="http://www.w3.org/2000/svg"><title>pie</title><g fill="none" fill-rule="evenodd"><path d="M62.275 41s7.615-10.423 7.615-13.264C69.89 21.661 55.216 19 38.373 19 21.529 19 7 21.661 7 27.736 7 30.63 14.998 41 14.998 41s11.47 1.99 23.447 1.99c11.66 0 23.83-1.99 23.83-1.99z" stroke="#F6E89E" stroke-width="4" fill="#F7EBB0"/><path d="M38.684 6c18.053 0 27.897 12.486 30.87 14.422 2.974 1.937 4.346-.82 5.379 1.383 1.032 2.202.032 3.273-1 4.475-1.033 1.202-3.158-.796-6.131 1.14-2.974 1.936-1.208 4.169-5.764 5.606-4.556 1.437-5.871-2.627-11.46-1.862-5.588.765-5.947 4.92-11.894 4.92-5.948 0-6.306-3.155-11.895-3.92-5.589-.765-6.31 3.112-11.46.862-5.15-2.25-1.79-3.674-4.763-5.61-2.974-1.937-6.099.066-7.131-1.136-1.033-1.202-2.033-2.273-1-4.475 1.032-2.202 2.704.554 5.678-1.383C11.086 18.486 20.63 6 38.683 6z" stroke="#B06F31" stroke-width="3" fill="#C08145"/><ellipse fill="#B06F31" transform="rotate(-26 25.95 16.417)" cx="25.949" cy="16.417" rx="7" ry="1.5"/><ellipse fill="#B06F31" transform="scale(-1 1) rotate(-26 0 237.102)" cx="50.949" cy="16.417" rx="7" ry="1.5"/><ellipse fill="#B06F31" transform="matrix(0 -1 -1 0 55.367 55.367)" cx="38.95" cy="16.417" rx="5" ry="1.5"/></g></svg>