<?xml version="1.0" encoding="UTF-8"?>
<svg width="200px" height="141px" viewBox="0 0 200 141" version="1.1" xmlns="http://www.w3.org/2000/svg" xmlns:xlink="http://www.w3.org/1999/xlink">
    <!-- Generator: Sketch 60.1 (88133) - https://sketch.com -->
    <title>speech.min</title>
    <desc>Created with Sketch.</desc>
    <g id="Page-1" stroke="none" stroke-width="1" fill="none" fill-rule="evenodd">
        <g id="speech.min" transform="translate(0.000000, 1.000000)">
            <g id="a-link" fill="#FFFFFF" fill-rule="nonzero">
                <path d="M0,5.6042 C0,2.50951921 3.58402755,8.88955576e-16 8.005,8.88955576e-16 L185.451,8.88955576e-16 C189.872,8.88955576e-16 193.457,2.5095 193.457,5.6 L193.457,117.9591 C193.457,120.1424 199.186,137.7761 200,140 C198.74,140 191.224,135.8665 183.471,132.6591 C175.719,129.451 175.501,129.451 168.423,129.451 L8,129.451 C3.582,129.451 0,126.938 0,123.8475 L0,5.6035 L0,5.6042 Z" id="a"></path>
            </g>
            <path d="M199.283,139.4386 C198.625,139.1866 197.545,138.7078 196.014,137.9854 C195.349,137.6711 192.724,136.4188 192.304,136.2186 C190.860029,135.530385 189.404935,134.853674 187.939,134.1886 C186.552218,133.558632 185.147605,132.948111 183.726,132.3574 C178.879,130.3519 177.402,129.8136 175.559,129.4608 C173.919,129.1472 172.753,129.101 168.423,129.101 L8,129.101 C3.86,129.101 0.5,126.7462 0.5,123.8475 L0.5,5.6035 C0.5,2.70239223 3.86056033,0.35 8.005,0.35 L185.451,0.35 C189.594336,0.35 192.95424,2.69966564 192.957,5.6 L192.957,116.4205 L193.957,116.4205 L193.957,116.3757 L193.957,116.3337 L193.957,116.3316 L192.957,116.3316 L192.957,117.9591 C192.957,119.6671 197.401,134.1081 199.283,139.4386 Z" id="Path" stroke-opacity="0.8" stroke="#B4B4B4"></path>
        </g>
    </g>
</svg>